<svg xmlns="http://www.w3.org/2000/svg" xmlns:xlink="http://www.w3.org/1999/xlink" width="500" zoomAndPan="magnify" viewBox="0 0 375 374.999991" height="500" preserveAspectRatio="xMidYMid meet" version="1.0"><defs><clipPath id="2ac51a5bbd"><path d="M 15.679688 37.675781 L 359.179688 37.675781 L 359.179688 281 L 15.679688 281 Z M 15.679688 37.675781 " clip-rule="nonzero"/></clipPath><clipPath id="62182d0b69"><path d="M 15.679688 228 L 359.179688 228 L 359.179688 237 L 15.679688 237 Z M 15.679688 228 " clip-rule="nonzero"/></clipPath><clipPath id="01978bd8d8"><path d="M 85 298 L 290 298 L 290 337.675781 L 85 337.675781 Z M 85 298 " clip-rule="nonzero"/></clipPath></defs><g clip-path="url(#2ac51a5bbd)"><path fill="#000000" d="M 321.597656 280.476562 L 53.261719 280.476562 C 32.539062 280.476562 15.679688 263.601562 15.679688 242.855469 L 15.679688 75.289062 C 15.679688 54.542969 32.539062 37.664062 53.261719 37.664062 L 321.597656 37.664062 C 342.320312 37.664062 359.179688 54.542969 359.179688 75.289062 L 359.179688 242.855469 C 359.179688 263.601562 342.320312 280.476562 321.597656 280.476562 Z M 53.261719 45.726562 C 45.410156 45.726562 38.003906 48.808594 32.410156 54.414062 C 26.816406 60.015625 23.730469 67.429688 23.730469 75.289062 L 23.730469 242.855469 C 23.730469 259.15625 36.980469 272.417969 53.261719 272.417969 L 321.597656 272.417969 C 337.882812 272.417969 351.128906 259.15625 351.128906 242.855469 L 351.128906 75.289062 C 351.128906 58.988281 337.882812 45.726562 321.597656 45.726562 Z M 53.261719 45.726562 " fill-opacity="1" fill-rule="evenodd"/></g><g clip-path="url(#62182d0b69)"><path fill="#000000" d="M 355.152344 236.257812 L 19.710938 236.257812 C 17.488281 236.257812 15.679688 234.449219 15.679688 232.222656 C 15.679688 230 17.488281 228.199219 19.710938 228.199219 L 355.152344 228.199219 C 357.375 228.199219 359.179688 230 359.179688 232.222656 C 359.179688 234.449219 357.375 236.257812 355.152344 236.257812 Z M 355.152344 236.257812 " fill-opacity="1" fill-rule="evenodd"/></g><path fill="#000000" d="M 207 258.363281 L 167.863281 258.363281 C 165.640625 258.363281 163.835938 256.5625 163.835938 254.335938 C 163.835938 252.113281 165.640625 250.304688 167.863281 250.304688 L 207 250.304688 C 209.222656 250.304688 211.027344 252.113281 211.027344 254.335938 C 211.027344 256.5625 209.222656 258.363281 207 258.363281 Z M 207 258.363281 " fill-opacity="1" fill-rule="evenodd"/><g clip-path="url(#01978bd8d8)"><path fill="#000000" d="M 285.234375 337.691406 C 285.234375 337.691406 285.226562 337.691406 285.21875 337.691406 L 89.636719 337.691406 C 88.191406 337.691406 86.867188 336.914062 86.148438 335.664062 C 85.429688 334.410156 85.4375 332.871094 86.160156 331.625 L 104.449219 300.308594 C 105.175781 299.078125 106.496094 298.316406 107.921875 298.316406 L 266.929688 298.308594 C 268.367188 298.308594 269.6875 299.070312 270.40625 300.308594 L 288.542969 331.355469 C 288.996094 332.015625 289.261719 332.800781 289.261719 333.65625 C 289.261719 335.882812 287.464844 337.691406 285.234375 337.691406 Z M 96.652344 329.625 L 278.210938 329.625 L 264.625 306.375 L 110.234375 306.375 Z M 96.652344 329.625 " fill-opacity="1" fill-rule="evenodd"/></g><path fill="#000000" d="M 206.246094 306.375 L 168.617188 306.375 C 166.394531 306.375 164.585938 304.566406 164.585938 302.34375 L 164.585938 276.449219 C 164.585938 274.21875 166.394531 272.417969 168.617188 272.417969 L 206.246094 272.417969 C 208.46875 272.417969 210.269531 274.21875 210.269531 276.449219 L 210.269531 302.34375 C 210.269531 304.566406 208.46875 306.375 206.246094 306.375 Z M 172.644531 298.316406 L 202.21875 298.316406 L 202.21875 280.476562 L 172.644531 280.476562 Z M 172.644531 298.316406 " fill-opacity="1" fill-rule="evenodd"/><path fill="#000000" d="M 130.855469 172.210938 C 129.46875 172.210938 128.113281 171.492188 127.367188 170.199219 C 126.253906 168.265625 126.917969 165.808594 128.839844 164.691406 L 148.332031 153.429688 C 150.257812 152.316406 152.722656 152.980469 153.828125 154.902344 C 154.945312 156.828125 154.28125 159.292969 152.359375 160.40625 L 132.867188 171.667969 C 132.230469 172.039062 131.539062 172.210938 130.855469 172.210938 Z M 130.855469 172.210938 " fill-opacity="1" fill-rule="evenodd"/><path fill="#000000" d="M 89.773438 100.984375 C 88.382812 100.984375 87.03125 100.257812 86.285156 98.964844 C 85.167969 97.039062 85.832031 94.574219 87.753906 93.457031 L 107.246094 82.195312 C 109.175781 81.082031 111.636719 81.746094 112.746094 83.667969 C 113.859375 85.597656 113.195312 88.0625 111.273438 89.171875 L 91.78125 100.441406 C 91.148438 100.804688 90.457031 100.984375 89.773438 100.984375 Z M 89.773438 100.984375 " fill-opacity="1" fill-rule="evenodd"/><path fill="#000000" d="M 161.140625 142.222656 C 158.917969 142.222656 157.117188 140.421875 157.117188 138.199219 L 157.117188 115.667969 C 157.117188 113.441406 158.917969 111.640625 161.140625 111.640625 C 163.363281 111.640625 165.167969 113.441406 165.167969 115.667969 L 165.167969 138.199219 C 165.167969 140.421875 163.363281 142.222656 161.140625 142.222656 Z M 161.140625 142.222656 " fill-opacity="1" fill-rule="evenodd"/><path fill="#000000" d="M 150.339844 100.976562 C 149.65625 100.976562 148.964844 100.804688 148.332031 100.441406 L 128.84375 89.171875 C 126.917969 88.0625 126.261719 85.597656 127.367188 83.667969 C 128.484375 81.746094 130.945312 81.085938 132.867188 82.195312 L 152.359375 93.457031 C 154.28125 94.574219 154.945312 97.039062 153.828125 98.964844 C 153.082031 100.257812 151.730469 100.976562 150.339844 100.976562 Z M 150.339844 100.976562 " fill-opacity="1" fill-rule="evenodd"/><path fill="#000000" d="M 109.257812 172.210938 C 108.574219 172.210938 107.882812 172.039062 107.246094 171.667969 L 87.761719 160.40625 C 85.832031 159.296875 85.175781 156.832031 86.285156 154.902344 C 87.398438 152.980469 89.855469 152.316406 91.78125 153.429688 L 111.273438 164.691406 C 113.195312 165.800781 113.851562 168.265625 112.746094 170.199219 C 112 171.492188 110.644531 172.210938 109.257812 172.210938 Z M 109.257812 172.210938 " fill-opacity="1" fill-rule="evenodd"/><path fill="#000000" d="M 78.972656 142.222656 C 76.75 142.222656 74.945312 140.421875 74.945312 138.199219 L 74.945312 115.675781 C 74.945312 113.449219 76.75 111.640625 78.972656 111.640625 C 81.195312 111.640625 83 113.449219 83 115.675781 L 82.996094 138.199219 C 82.996094 140.421875 81.195312 142.222656 78.972656 142.222656 Z M 78.972656 142.222656 " fill-opacity="1" fill-rule="evenodd"/><path fill="#000000" d="M 78.988281 119.699219 C 73.105469 119.699219 67.625 116.539062 64.691406 111.445312 C 60.144531 103.5625 62.851562 93.445312 70.722656 88.890625 C 73.234375 87.441406 76.078125 86.679688 78.960938 86.679688 C 84.839844 86.679688 90.320312 89.84375 93.253906 94.9375 C 97.800781 102.816406 95.09375 112.9375 87.222656 117.488281 C 84.710938 118.933594 81.867188 119.699219 78.988281 119.699219 Z M 78.960938 94.738281 C 77.488281 94.738281 76.039062 95.128906 74.753906 95.867188 C 70.71875 98.203125 69.335938 103.378906 71.660156 107.410156 C 73.167969 110.019531 75.96875 111.640625 78.988281 111.640625 C 80.457031 111.640625 81.90625 111.25 83.191406 110.503906 C 87.222656 108.179688 88.609375 103.003906 86.285156 98.964844 C 84.78125 96.355469 81.976562 94.738281 78.960938 94.738281 Z M 78.960938 94.738281 " fill-opacity="1" fill-rule="evenodd"/><path fill="#000000" d="M 120.070312 95.957031 C 114.1875 95.957031 108.710938 92.792969 105.777344 87.699219 C 103.574219 83.878906 102.984375 79.429688 104.128906 75.171875 C 105.269531 70.914062 108 67.355469 111.816406 65.148438 C 114.320312 63.699219 117.164062 62.9375 120.050781 62.9375 C 125.925781 62.9375 131.402344 66.101562 134.34375 71.195312 C 138.886719 79.074219 136.175781 89.195312 128.304688 93.746094 C 125.792969 95.191406 122.949219 95.957031 120.070312 95.957031 Z M 120.050781 70.996094 C 118.578125 70.996094 117.121094 71.386719 115.835938 72.125 C 113.886719 73.253906 112.484375 75.078125 111.902344 77.261719 C 111.324219 79.4375 111.617188 81.71875 112.746094 83.667969 C 114.25 86.277344 117.054688 87.898438 120.070312 87.898438 C 121.539062 87.898438 122.996094 87.503906 124.277344 86.761719 C 128.3125 84.433594 129.691406 79.253906 127.367188 75.21875 C 125.863281 72.613281 123.058594 70.996094 120.050781 70.996094 Z M 120.050781 70.996094 " fill-opacity="1" fill-rule="evenodd"/><path fill="#000000" d="M 161.152344 119.699219 C 155.273438 119.699219 149.792969 116.539062 146.859375 111.445312 C 144.65625 107.625 144.070312 103.171875 145.210938 98.914062 C 146.355469 94.65625 149.082031 91.097656 152.898438 88.890625 C 155.402344 87.441406 158.246094 86.679688 161.125 86.679688 C 167.007812 86.679688 172.488281 89.84375 175.421875 94.9375 C 179.96875 102.816406 177.261719 112.9375 169.390625 117.488281 C 166.878906 118.933594 164.035156 119.699219 161.152344 119.699219 Z M 161.125 94.738281 C 159.664062 94.738281 158.207031 95.128906 156.921875 95.867188 C 154.972656 97 153.578125 98.820312 152.988281 101.003906 C 152.40625 103.179688 152.707031 105.460938 153.828125 107.410156 C 155.335938 110.019531 158.136719 111.640625 161.152344 111.640625 C 162.625 111.640625 164.082031 111.25 165.359375 110.503906 C 169.394531 108.179688 170.785156 102.996094 168.453125 98.964844 C 166.945312 96.355469 164.144531 94.738281 161.125 94.738281 Z M 161.125 94.738281 " fill-opacity="1" fill-rule="evenodd"/><path fill="#000000" d="M 78.988281 167.191406 C 73.105469 167.191406 67.625 164.027344 64.691406 158.9375 C 60.144531 151.046875 62.851562 140.929688 70.722656 136.382812 C 73.234375 134.933594 76.078125 134.167969 78.960938 134.167969 C 84.839844 134.167969 90.320312 137.328125 93.253906 142.421875 C 97.800781 150.308594 95.09375 160.421875 87.222656 164.972656 C 84.710938 166.425781 81.867188 167.191406 78.988281 167.191406 Z M 78.960938 142.222656 C 77.488281 142.222656 76.039062 142.621094 74.753906 143.359375 C 70.71875 145.6875 69.335938 150.863281 71.660156 154.902344 C 73.167969 157.511719 75.96875 159.128906 78.988281 159.128906 C 80.449219 159.128906 81.90625 158.738281 83.191406 157.996094 C 87.222656 155.664062 88.609375 150.488281 86.285156 146.453125 C 84.78125 143.847656 81.976562 142.222656 78.960938 142.222656 Z M 78.960938 142.222656 " fill-opacity="1" fill-rule="evenodd"/><path fill="#000000" d="M 120.070312 190.933594 C 114.1875 190.933594 108.710938 187.773438 105.777344 182.679688 C 101.226562 174.792969 103.9375 164.679688 111.808594 160.125 C 114.320312 158.675781 117.164062 157.910156 120.042969 157.910156 C 125.925781 157.910156 131.402344 161.078125 134.335938 166.164062 C 138.886719 174.050781 136.175781 184.171875 128.304688 188.714844 C 125.792969 190.167969 122.949219 190.933594 120.070312 190.933594 Z M 120.042969 165.972656 C 118.578125 165.972656 117.121094 166.363281 115.835938 167.101562 C 111.808594 169.429688 110.421875 174.613281 112.746094 178.644531 C 114.25 181.253906 117.054688 182.875 120.070312 182.875 C 121.539062 182.875 122.996094 182.480469 124.277344 181.738281 C 128.3125 179.414062 129.691406 174.230469 127.367188 170.199219 C 125.863281 167.589844 123.058594 165.972656 120.042969 165.972656 Z M 120.042969 165.972656 " fill-opacity="1" fill-rule="evenodd"/><path fill="#000000" d="M 161.152344 167.191406 C 155.273438 167.191406 149.792969 164.027344 146.859375 158.9375 C 142.3125 151.046875 145.019531 140.929688 152.898438 136.382812 C 155.402344 134.933594 158.246094 134.167969 161.125 134.167969 C 167.007812 134.167969 172.488281 137.328125 175.421875 142.421875 C 179.96875 150.308594 177.261719 160.421875 169.390625 164.972656 C 166.886719 166.425781 164.035156 167.191406 161.152344 167.191406 Z M 161.125 142.222656 C 159.664062 142.222656 158.207031 142.621094 156.921875 143.359375 C 152.890625 145.6875 151.503906 150.871094 153.828125 154.902344 C 155.335938 157.511719 158.144531 159.128906 161.152344 159.128906 C 162.625 159.128906 164.082031 158.738281 165.359375 157.996094 C 169.394531 155.671875 170.785156 150.488281 168.453125 146.453125 C 166.945312 143.847656 164.144531 142.222656 161.125 142.222656 Z M 161.125 142.222656 " fill-opacity="1" fill-rule="evenodd"/><path fill="#000000" d="M 243.683594 124.273438 C 236.230469 124.273438 229.289062 120.261719 225.566406 113.804688 C 222.777344 108.964844 222.03125 103.332031 223.472656 97.929688 C 224.925781 92.527344 228.386719 88.015625 233.21875 85.222656 C 236.394531 83.386719 240.003906 82.414062 243.65625 82.414062 C 251.105469 82.414062 258.046875 86.425781 261.773438 92.882812 C 264.566406 97.722656 265.3125 103.359375 263.859375 108.761719 C 262.417969 114.160156 258.957031 118.671875 254.121094 121.464844 C 250.949219 123.300781 247.335938 124.273438 243.683594 124.273438 Z M 243.652344 90.472656 C 241.414062 90.472656 239.199219 91.070312 237.242188 92.199219 C 234.265625 93.917969 232.140625 96.695312 231.25 100.015625 C 230.363281 103.332031 230.820312 106.800781 232.535156 109.78125 C 234.828125 113.75 239.09375 116.214844 243.683594 116.214844 C 245.929688 116.214844 248.144531 115.613281 250.09375 114.488281 C 253.066406 112.765625 255.195312 109.992188 256.085938 106.671875 C 256.972656 103.359375 256.515625 99.886719 254.796875 96.910156 C 252.507812 92.945312 248.238281 90.472656 243.652344 90.472656 Z M 243.652344 90.472656 " fill-opacity="1" fill-rule="evenodd"/><path fill="#000000" d="M 269.429688 210.988281 C 261.972656 210.988281 255.03125 206.976562 251.304688 200.519531 C 248.511719 195.679688 247.773438 190.042969 249.21875 184.644531 C 250.660156 179.242188 254.121094 174.730469 258.957031 171.9375 C 262.128906 170.101562 265.742188 169.128906 269.394531 169.128906 C 276.847656 169.128906 283.789062 173.140625 287.511719 179.597656 C 290.300781 184.4375 291.046875 190.078125 289.605469 195.472656 C 288.152344 200.875 284.691406 205.386719 279.859375 208.179688 C 276.683594 210.015625 273.074219 210.988281 269.429688 210.988281 Z M 269.394531 177.1875 C 267.152344 177.1875 264.933594 177.789062 262.984375 178.917969 C 260.011719 180.636719 257.882812 183.410156 256.992188 186.730469 C 256.105469 190.050781 256.5625 193.515625 258.28125 196.492188 C 260.5625 200.464844 264.839844 202.929688 269.421875 202.929688 C 271.664062 202.929688 273.878906 202.332031 275.835938 201.203125 C 278.8125 199.484375 280.9375 196.707031 281.820312 193.386719 C 282.710938 190.070312 282.257812 186.601562 280.542969 183.628906 C 278.25 179.660156 273.976562 177.1875 269.394531 177.1875 Z M 269.394531 177.1875 " fill-opacity="1" fill-rule="evenodd"/><path fill="#000000" d="M 297.652344 152.589844 C 292.402344 152.589844 287.503906 149.761719 284.886719 145.214844 C 280.816406 138.171875 283.238281 129.128906 290.273438 125.0625 C 292.515625 123.765625 295.0625 123.082031 297.632812 123.082031 C 302.886719 123.082031 307.78125 125.910156 310.410156 130.460938 C 312.371094 133.871094 312.898438 137.847656 311.878906 141.65625 C 310.859375 145.460938 308.417969 148.640625 305.011719 150.609375 C 302.777344 151.90625 300.226562 152.589844 297.652344 152.589844 Z M 297.632812 131.140625 C 296.46875 131.140625 295.316406 131.453125 294.300781 132.042969 C 291.109375 133.886719 290.007812 137.984375 291.855469 141.183594 C 293.042969 143.25 295.265625 144.53125 297.652344 144.53125 C 298.816406 144.53125 299.972656 144.222656 300.984375 143.632812 C 302.539062 142.738281 303.636719 141.292969 304.101562 139.566406 C 304.570312 137.84375 304.328125 136.035156 303.433594 134.488281 C 302.242188 132.425781 300.019531 131.140625 297.632812 131.140625 Z M 297.632812 131.140625 " fill-opacity="1" fill-rule="evenodd"/><path fill="#000000" d="M 215.535156 179.117188 C 210.28125 179.117188 205.382812 176.289062 202.765625 171.738281 C 198.703125 164.691406 201.125 155.65625 208.160156 151.589844 C 210.398438 150.296875 212.941406 149.609375 215.511719 149.609375 C 220.773438 149.609375 225.664062 152.4375 228.289062 156.984375 C 230.257812 160.402344 230.777344 164.371094 229.757812 168.179688 C 228.742188 171.984375 226.304688 175.167969 222.894531 177.140625 C 220.65625 178.433594 218.113281 179.117188 215.535156 179.117188 Z M 215.511719 157.667969 C 214.351562 157.667969 213.203125 157.976562 212.183594 158.566406 C 208.988281 160.414062 207.894531 164.515625 209.734375 167.707031 C 210.925781 169.773438 213.148438 171.054688 215.535156 171.054688 C 216.695312 171.054688 217.851562 170.746094 218.871094 170.15625 C 220.417969 169.265625 221.523438 167.820312 221.984375 166.097656 C 222.449219 164.363281 222.210938 162.5625 221.320312 161.015625 C 220.125 158.949219 217.898438 157.667969 215.511719 157.667969 Z M 215.511719 157.667969 " fill-opacity="1" fill-rule="evenodd"/><path fill="#000000" d="M 260.960938 179.460938 C 259.011719 179.460938 257.292969 178.035156 256.988281 176.042969 L 254.605469 160.621094 C 254.273438 158.414062 255.777344 156.363281 257.972656 156.019531 C 260.175781 155.683594 262.226562 157.191406 262.566406 159.386719 L 264.949219 174.8125 C 265.285156 177.007812 263.777344 179.070312 261.582031 179.414062 C 261.371094 179.441406 261.164062 179.460938 260.960938 179.460938 Z M 255.316406 142.832031 C 253.363281 142.832031 251.652344 141.410156 251.34375 139.417969 L 248.128906 118.589844 C 247.789062 116.394531 249.300781 114.332031 251.496094 113.996094 C 253.683594 113.65625 255.75 115.160156 256.085938 117.367188 L 259.300781 138.191406 C 259.640625 140.390625 258.128906 142.449219 255.933594 142.785156 C 255.730469 142.820312 255.515625 142.832031 255.316406 142.832031 Z M 255.316406 142.832031 " fill-opacity="1" fill-rule="evenodd"/><path fill="#000000" d="M 224.800781 163.03125 C 223.058594 163.03125 221.449219 161.886719 220.9375 160.125 C 220.316406 157.992188 221.546875 155.753906 223.679688 155.128906 L 245.613281 148.753906 C 247.746094 148.132812 249.984375 149.363281 250.597656 151.5 C 251.222656 153.636719 249.996094 155.875 247.855469 156.492188 L 225.921875 162.871094 C 225.554688 162.980469 225.171875 163.03125 224.800781 163.03125 Z M 267.308594 150.679688 C 265.5625 150.679688 263.957031 149.527344 263.445312 147.769531 C 262.820312 145.632812 264.050781 143.394531 266.1875 142.777344 L 286.230469 136.953125 C 288.367188 136.328125 290.59375 137.5625 291.21875 139.699219 C 291.839844 141.832031 290.609375 144.066406 288.476562 144.6875 L 268.429688 150.515625 C 268.054688 150.625 267.675781 150.679688 267.308594 150.679688 Z M 267.308594 150.679688 " fill-opacity="1" fill-rule="evenodd"/><path fill="#000000" d="M 256.964844 164.160156 C 251.714844 164.160156 246.816406 161.332031 244.191406 156.777344 C 242.222656 153.363281 241.703125 149.390625 242.71875 145.585938 C 243.738281 141.777344 246.179688 138.59375 249.585938 136.628906 C 251.824219 135.335938 254.367188 134.652344 256.945312 134.652344 C 262.199219 134.652344 267.097656 137.480469 269.714844 142.027344 C 271.683594 145.441406 272.210938 149.414062 271.191406 153.21875 C 270.171875 157.027344 267.730469 160.207031 264.324219 162.179688 C 262.082031 163.472656 259.539062 164.160156 256.964844 164.160156 Z M 256.945312 142.710938 C 255.785156 142.710938 254.628906 143.019531 253.609375 143.605469 C 252.0625 144.496094 250.953125 145.941406 250.496094 147.667969 C 250.03125 149.398438 250.269531 151.199219 251.160156 152.746094 C 252.355469 154.8125 254.578125 156.09375 256.964844 156.09375 C 258.128906 156.09375 259.277344 155.785156 260.296875 155.199219 C 261.84375 154.300781 262.949219 152.863281 263.417969 151.136719 C 263.875 149.40625 263.636719 147.605469 262.746094 146.058594 C 261.554688 143.992188 259.332031 142.710938 256.945312 142.710938 Z M 256.945312 142.710938 " fill-opacity="1" fill-rule="evenodd"/><path fill="#000000" d="M 206.191406 173.65625 C 205.671875 173.65625 205.144531 173.550781 204.632812 173.339844 L 171.078125 159.238281 C 169.027344 158.375 168.0625 156.011719 168.921875 153.957031 C 169.785156 151.90625 172.144531 150.945312 174.191406 151.800781 L 207.75 165.90625 C 209.800781 166.769531 210.765625 169.128906 209.90625 171.183594 C 209.253906 172.722656 207.765625 173.65625 206.191406 173.65625 Z M 206.191406 173.65625 " fill-opacity="1" fill-rule="evenodd"/></svg>